<svg width="1920" height="1080" viewBox="0 0 1920 1080" fill="none" xmlns="http://www.w3.org/2000/svg">
<path d="M1045.75 756.72H677.47V789.16H1045.75V756.72Z" fill="#F09021"/>
<path d="M677.47 756.72H395.48V789.16H677.47V756.72Z" fill="#B63387"/>
<path d="M841.44 695.38H512.13V727.82H841.44V695.38Z" fill="#3CA0D9"/>
<path d="M1070.99 695.38H886.57V727.82H1070.99V695.38Z" fill="#E22C2E"/>
<path d="M512.14 695.38H147.06V727.82H512.14V695.38Z" fill="#B63387"/>
<path d="M1099.48 634.21H745.55V666.65H1099.48V634.21Z" fill="#B63387"/>
<path d="M453.18 555.98C444.98 563.68 435.56 569.79 424.84 574.47C413.19 579.58 400.67 582.1 387.29 582.1C373.91 582.1 361.68 579.58 349.95 574.47C338.22 569.36 328.08 562.53 319.38 553.75C310.68 545.05 303.77 534.83 298.66 523.18C293.55 511.53 291.03 499.01 291.03 485.63C291.03 472.25 293.55 459.95 298.66 448.15C303.77 436.35 310.6 426.14 319.38 417.43C328.08 408.73 338.3 401.82 349.95 396.71C361.6 391.6 374.05 389.08 387.29 389.08C400.53 389.08 413.19 391.6 424.84 396.71C435.56 401.39 445.05 407.57 453.33 415.34L430.81 441.88C430.67 441.74 430.45 441.52 430.31 441.38C424.84 435.63 418.37 431.02 411.03 427.57C403.69 424.12 395.78 422.39 387.36 422.39C378.94 422.39 371.03 424.12 363.69 427.57C356.35 431.02 349.95 435.63 344.41 441.38C338.94 447.13 334.55 453.9 331.39 461.59C328.15 469.29 326.57 477.27 326.57 485.62C326.57 493.97 328.15 502.09 331.39 509.72C334.63 517.35 338.94 524.04 344.41 529.93C349.88 535.76 356.35 540.43 363.69 543.89C371.03 547.34 378.94 549.07 387.36 549.07C395.78 549.07 403.69 547.34 411.03 543.89C418.37 540.44 424.77 535.76 430.31 529.93C430.45 529.79 430.6 529.57 430.81 529.43L453.18 555.97V555.98Z" fill="black"/>
<path d="M758.31 579.65H685.08V393.84H758.31C784.85 393.84 806.65 401.61 823.7 417.22C832.84 425.49 839.74 435.56 844.35 447.29C849.03 459.09 851.33 472.18 851.33 486.78C851.33 501.38 849.03 514.76 844.35 526.49C839.67 538.29 832.84 548.29 823.7 556.56C815.43 564.19 805.72 569.94 794.64 573.82C783.63 577.7 771.55 579.65 758.31 579.65ZM720.62 548.14H758.46C765.08 548.14 771.77 547.35 778.53 545.84C785.29 544.33 791.41 541.31 796.95 536.85C802.42 532.39 806.95 526.13 810.55 518.22C814.07 510.24 815.87 499.88 815.87 487C815.87 474.12 814.07 463.69 810.55 455.64C807.03 447.58 802.42 441.4 796.81 437.01C791.2 432.62 785.01 429.67 778.25 428.09C771.49 426.58 764.87 425.79 758.47 425.79H720.63V548.15L720.62 548.14Z" fill="black"/>
<path d="M568.27 582.02C555.03 582.02 542.66 579.5 530.93 574.39C519.2 569.28 509.06 562.45 500.36 553.67C491.66 544.97 484.75 534.75 479.64 523.1C474.53 511.45 472.01 498.93 472.01 485.55C472.01 472.17 474.53 459.87 479.64 448.07C484.75 436.27 491.58 426.06 500.36 417.35C509.06 408.65 519.28 401.74 530.93 396.63C542.58 391.52 555.03 389 568.27 389C581.51 389 594.17 391.52 605.82 396.63C617.47 401.74 627.69 408.57 636.39 417.35C645.09 426.05 652 436.34 657.11 448.07C662.22 459.87 664.74 472.31 664.74 485.55C664.74 498.79 662.22 511.45 657.11 523.1C652 534.75 645.17 544.97 636.39 553.67C627.69 562.37 617.47 569.28 605.82 574.39C594.17 579.5 581.65 582.02 568.27 582.02ZM568.42 422.32C560 422.32 552.09 424.05 544.75 427.5C537.41 430.95 531.01 435.56 525.47 441.31C520 447.06 515.61 453.83 512.45 461.52C509.21 469.22 507.63 477.2 507.63 485.55C507.63 493.9 509.21 502.02 512.45 509.65C515.69 517.28 520 523.97 525.47 529.86C530.94 535.69 537.41 540.36 544.75 543.82C552.09 547.27 560 549 568.42 549C576.84 549 584.75 547.27 592.09 543.82C599.43 540.37 605.83 535.69 611.37 529.86C616.84 524.03 621.23 517.27 624.39 509.65C627.56 502.02 629.21 493.97 629.21 485.55C629.21 477.13 627.63 469.29 624.39 461.52C621.15 453.82 616.84 447.06 611.37 441.31C605.9 435.56 599.43 430.95 592.09 427.5C584.75 424.12 576.84 422.32 568.42 422.32Z" fill="black"/>
<path d="M1198.56 391.39L1104.83 501.16L1011.38 391.39V445.56L1104.83 555.55L1162.95 485.7V579.65H1198.56V391.39Z" fill="black"/>
<path d="M1046.42 579.65L886.57 391.39V445.2L973.98 548.64H886.57V579.65H1046.42Z" fill="black"/>
<path d="M1286.82 791V712.078H1204.92V791H1168V603H1204.92V676.851H1286.82V603H1324V791H1286.82Z" fill="black"/>
<path d="M1769.26 798.02C1756.02 798.02 1743.65 795.5 1731.92 790.39C1720.19 785.28 1710.05 778.45 1701.35 769.67C1692.65 760.97 1685.74 750.75 1680.63 739.1C1675.52 727.45 1673 714.93 1673 701.55C1673 688.17 1675.52 675.87 1680.63 664.07C1685.74 652.27 1692.57 642.06 1701.35 633.35C1710.05 624.65 1720.27 617.74 1731.92 612.63C1743.57 607.52 1756.02 605 1769.26 605C1782.5 605 1795.16 607.52 1806.81 612.63C1818.46 617.74 1828.68 624.57 1837.38 633.35C1846.08 642.05 1852.99 652.34 1858.1 664.07C1863.21 675.87 1865.73 688.31 1865.73 701.55C1865.73 714.79 1863.21 727.45 1858.1 739.1C1852.99 750.75 1846.16 760.97 1837.38 769.67C1828.68 778.37 1818.46 785.28 1806.81 790.39C1795.16 795.5 1782.64 798.02 1769.26 798.02ZM1769.41 638.32C1760.99 638.32 1753.08 640.05 1745.74 643.5C1738.4 646.95 1732 651.56 1726.46 657.31C1720.99 663.06 1716.6 669.83 1713.44 677.52C1710.2 685.22 1708.62 693.2 1708.62 701.55C1708.62 709.9 1710.2 718.02 1713.44 725.65C1716.68 733.28 1720.99 739.97 1726.46 745.86C1731.93 751.69 1738.4 756.36 1745.74 759.82C1753.08 763.27 1760.99 765 1769.41 765C1777.83 765 1785.74 763.27 1793.08 759.82C1800.42 756.37 1806.82 751.69 1812.36 745.86C1817.83 740.03 1822.22 733.27 1825.38 725.65C1828.55 718.02 1830.2 709.97 1830.2 701.55C1830.2 693.13 1828.62 685.29 1825.38 677.52C1822.14 669.82 1817.83 663.06 1812.36 657.31C1806.89 651.56 1800.42 646.95 1793.08 643.5C1785.74 640.12 1777.83 638.32 1769.41 638.32Z" fill="black"/>
<path d="M1613.12 791L1576.24 724.352H1546.97V791H1507V605H1594.82C1633.95 605 1657.87 630.378 1657.87 664.95C1657.87 699.523 1637.05 715.426 1616.78 720.164L1659 791H1613.12ZM1588.91 639.024H1546.97V690.328H1588.91C1604.95 690.328 1617.06 680.283 1617.06 664.671C1617.06 649.059 1604.95 639.013 1588.91 639.013V639.024Z" fill="black"/>
<path d="M1470 606H1355V640.293H1470V606Z" fill="black"/>
<path d="M1470 681.359H1355V715.652H1470V681.359Z" fill="black"/>
<path d="M1470 756.707H1355V791H1470V756.707Z" fill="black"/>
</svg>
