<svg version="1.2" xmlns="http://www.w3.org/2000/svg" viewBox="0 0 1920 700" width="1920" height="700"><style>.a{fill:#f09021}.b{fill:#b63387}.c{fill:#3ca0d9}.d{fill:#e22c2e}</style><path class="a" d="m1045.8 516.7h-368.3v32.5h368.3z"/><path class="b" d="m677.5 516.7h-282v32.5h282z"/><path class="c" d="m841.4 455.4h-329.3v32.4h329.3z"/><path class="d" d="m1071 455.4h-184.4v32.4h184.4z"/><path class="b" d="m512.1 455.4h-365v32.4h365z"/><path class="b" d="m1099.5 394.2h-354v32.4h354z"/><path  d="m453.2 316c-8.2 7.7-17.6 13.8-28.4 18.5-11.6 5.1-24.1 7.6-37.5 7.6-13.4 0-25.6-2.5-37.4-7.6-11.7-5.1-21.8-12-30.5-20.8-8.7-8.7-15.6-18.9-20.7-30.5-5.1-11.7-7.7-24.2-7.7-37.6 0-13.3 2.6-25.7 7.7-37.5 5.1-11.7 11.9-22 20.7-30.7 8.7-8.7 18.9-15.6 30.5-20.7 11.7-5.1 24.2-7.6 37.4-7.6 13.2 0 25.9 2.5 37.5 7.6 10.8 4.7 20.3 10.9 28.5 18.6l-22.5 26.6c-0.1-0.2-0.4-0.4-0.5-0.5-5.5-5.8-11.9-10.4-19.3-13.8q-11-5.2-23.6-5.2-12.7 0-23.7 5.2c-7.3 3.4-13.8 8-19.3 13.8-5.5 5.7-9.8 12.5-13 20.2-3.3 7.7-4.8 15.7-4.8 24 0 8.4 1.5 16.5 4.8 24.1 3.2 7.7 7.5 14.3 13 20.2 5.5 5.9 12 10.5 19.3 14q11 5.2 23.7 5.2 12.6 0 23.6-5.2c7.4-3.5 13.8-8.1 19.3-14 0.1-0.1 0.3-0.3 0.5-0.5l22.4 26.6z"/><path  d="m758.3 339.6h-73.2v-185.8h73.2c26.6 0 48.4 7.8 65.4 23.4 9.1 8.3 16 18.4 20.7 30.1 4.6 11.8 6.9 24.9 6.9 39.5 0 14.6-2.3 28-6.9 39.7-4.7 11.8-11.6 21.8-20.7 30.1-8.3 7.6-18 13.3-29.1 17.2-11 3.9-23.1 5.8-36.3 5.8zm-37.7-31.5h37.9c6.6 0 13.3-0.7 20-2.3 6.8-1.5 12.9-4.5 18.5-8.9 5.4-4.5 10-10.8 13.5-18.7 3.6-8 5.4-18.3 5.4-31.2 0-12.9-1.8-23.3-5.4-31.4-3.5-8-8.1-14.2-13.7-18.6-5.6-4.4-11.8-7.3-18.5-8.9-6.8-1.5-13.4-2.3-19.8-2.3h-37.9v122.3z"/><path  d="m568.3 342c-13.3 0-25.6-2.5-37.4-7.6-11.7-5.1-21.8-11.9-30.5-20.7-8.7-8.7-15.6-19-20.8-30.6-5.1-11.7-7.6-24.2-7.6-37.5 0-13.4 2.5-25.7 7.6-37.5 5.2-11.8 12-22 20.8-30.7 8.7-8.8 18.9-15.7 30.5-20.8 11.7-5.1 24.1-7.6 37.4-7.6 13.2 0 25.9 2.5 37.5 7.6 11.7 5.1 21.9 12 30.6 20.8 8.7 8.7 15.6 18.9 20.7 30.7 5.1 11.8 7.6 24.2 7.6 37.5 0 13.2-2.5 25.8-7.6 37.5-5.1 11.7-11.9 21.9-20.7 30.6-8.7 8.7-18.9 15.6-30.6 20.7-11.6 5.1-24.1 7.6-37.5 7.6zm0.1-159.7q-12.6 0-23.6 5.2c-7.4 3.4-13.8 8.1-19.3 13.8-5.5 5.8-9.9 12.5-13 20.2-3.3 7.7-4.9 15.7-4.9 24.1 0 8.3 1.6 16.4 4.9 24 3.2 7.7 7.5 14.4 13 20.3 5.4 5.8 11.9 10.5 19.3 13.9q11 5.2 23.6 5.2 12.7 0 23.7-5.2c7.3-3.4 13.7-8.1 19.3-13.9 5.4-5.9 9.8-12.6 13-20.3 3.2-7.6 4.8-15.6 4.8-24.1 0-8.4-1.6-16.2-4.8-24-3.2-7.7-7.6-14.4-13-20.2-5.5-5.7-12-10.4-19.3-13.8-7.3-3.4-15.3-5.2-23.7-5.2z"/><path  d="m1198.6 151.4l-93.8 109.8-93.4-109.8v54.2l93.4 109.9 58.2-69.8v93.9h35.6z"/><path  d="m1046.4 339.6l-159.8-188.2v53.8l87.4 103.4h-87.4v31z"/><path  d="m1286.8 551v-78.9h-81.9v78.9h-36.9v-188h36.9v73.9h81.9v-73.9h37.2v188z"/><path  d="m1769.3 558c-13.3 0-25.6-2.5-37.4-7.6-11.7-5.1-21.9-11.9-30.6-20.7-8.6-8.7-15.6-19-20.7-30.6-5.1-11.6-7.6-24.2-7.6-37.6 0-13.3 2.5-25.6 7.6-37.4 5.1-11.8 12-22 20.7-30.7 8.8-8.8 19-15.7 30.6-20.8 11.7-5.1 24.1-7.6 37.4-7.6 13.2 0 25.9 2.5 37.5 7.6 11.7 5.1 21.9 12 30.6 20.8 8.7 8.6 15.6 18.9 20.7 30.7 5.1 11.8 7.6 24.2 7.6 37.4 0 13.3-2.5 26-7.6 37.6-5.1 11.7-11.9 21.9-20.7 30.6-8.7 8.7-18.9 15.6-30.6 20.7-11.6 5.1-24.2 7.6-37.5 7.6zm0.1-159.7q-12.6 0-23.7 5.2c-7.3 3.5-13.7 8.1-19.2 13.8-5.5 5.8-9.9 12.5-13.1 20.2-3.2 7.7-4.8 15.7-4.8 24 0 8.4 1.6 16.5 4.8 24.1 3.3 7.7 7.6 14.4 13.1 20.3 5.4 5.8 11.9 10.5 19.2 13.9q11.1 5.2 23.7 5.2 12.7 0 23.7-5.2c7.3-3.4 13.7-8.1 19.3-13.9 5.4-5.9 9.8-12.6 13-20.3 3.1-7.6 4.8-15.6 4.8-24.1 0-8.4-1.6-16.2-4.8-24-3.3-7.7-7.6-14.4-13-20.2-5.5-5.7-12-10.3-19.3-13.8-7.4-3.4-15.3-5.2-23.7-5.2z"/><path  d="m1613.1 551l-36.9-66.6h-29.2v66.6h-40v-186h87.8c39.2 0 63.1 25.4 63.1 60 0 34.5-20.8 50.4-41.1 55.2l42.2 70.8zm-24.2-152h-41.9v51.3h41.9c16 0 28.1-10 28.1-25.6 0-15.6-12.1-25.7-28.1-25.7z"/><path  d="m1470 366h-115v34.3h115z"/><path  d="m1470 441.4h-115v34.3h115z"/><path  d="m1470 516.7h-115v34.3h115z"/></svg>