<svg version="1.2" xmlns="http://www.w3.org/2000/svg" viewBox="0 0 1920 700" width="1920" height="700"><style>.a{fill:#b63387}.b{fill:#3ca0d9}.c{fill:#e22c2e}.d{fill:#f09021}.e{fill:#fff}</style><path fill-rule="evenodd" class="a" d="m745.5 394.2h354v32.5h-354z"/><path fill-rule="evenodd" class="b" d="m512.1 455.4h329.3v32.4h-329.3z"/><path fill-rule="evenodd" class="c" d="m886.6 455.4h184.4v32.4h-184.4z"/><path fill-rule="evenodd" class="a" d="m147.1 455.4h365v32.4h-365z"/><path fill-rule="evenodd" class="d" d="m677.5 516.7h368.3l-0.1 32.5h-368.2z"/><path fill-rule="evenodd" class="a" d="m395.5 516.7h282v32.5h-282z"/><path class="e" d="m453.2 316c-8.2 7.7-17.6 13.8-28.4 18.5-11.6 5.1-24.1 7.6-37.5 7.6-13.4 0-25.6-2.5-37.3-7.6-11.8-5.1-21.9-12-30.6-20.8-8.7-8.7-15.6-18.9-20.7-30.5-5.1-11.7-7.7-24.2-7.7-37.6 0-13.4 2.6-25.7 7.7-37.5 5.1-11.8 11.9-22 20.7-30.7 8.7-8.7 18.9-15.6 30.6-20.7 11.6-5.1 24.1-7.6 37.3-7.6 13.2 0 25.9 2.5 37.5 7.6 10.8 4.7 20.3 10.9 28.5 18.6l-22.5 26.6c-0.1-0.2-0.3-0.4-0.5-0.5-5.5-5.8-11.9-10.4-19.3-13.8q-11-5.2-23.6-5.2-12.7 0-23.7 5.2c-7.3 3.4-13.7 8-19.3 13.8-5.5 5.7-9.8 12.5-13 20.2-3.2 7.7-4.8 15.7-4.8 24 0 8.4 1.6 16.5 4.8 24.1 3.2 7.6 7.5 14.3 13 20.2 5.5 5.9 12 10.5 19.3 14q11 5.2 23.7 5.2 12.6 0 23.6-5.2c7.4-3.5 13.8-8.1 19.3-14 0.2-0.1 0.3-0.3 0.5-0.5l22.4 26.6z"/><path class="e" d="m758.3 339.6h-73.2v-185.8h73.2c26.5 0 48.4 7.8 65.4 23.4 9.1 8.3 16 18.4 20.6 30.1 4.7 11.8 7 24.9 7 39.5 0 14.6-2.3 28-7 39.7-4.6 11.8-11.5 21.8-20.6 30.1-8.3 7.6-18 13.3-29.1 17.2-11 3.9-23.1 5.9-36.3 5.8zm-37.7-31.5h37.9c6.6 0 13.3-0.7 20-2.3 6.8-1.5 12.9-4.5 18.5-8.9 5.4-4.5 10-10.8 13.6-18.7 3.5-8 5.3-18.3 5.3-31.2 0-12.9-1.8-23.3-5.3-31.4-3.6-8-8.2-14.2-13.8-18.6-5.6-4.4-11.8-7.3-18.5-8.9-6.8-1.5-13.4-2.3-19.8-2.3h-37.9v122.3z"/><path class="e" d="m568.3 342c-13.3 0-25.6-2.5-37.4-7.6-11.7-5.1-21.8-12-30.5-20.7-8.7-8.7-15.7-19-20.8-30.6-5.1-11.7-7.6-24.2-7.6-37.6 0-13.3 2.5-25.6 7.6-37.4 5.2-11.8 12-22 20.8-30.8 8.7-8.7 18.9-15.6 30.5-20.7 11.7-5.1 24.1-7.6 37.4-7.6 13.2 0 25.9 2.5 37.5 7.6 11.7 5.1 21.9 12 30.6 20.7 8.7 8.7 15.6 19 20.7 30.8 5.1 11.8 7.6 24.2 7.6 37.4 0 13.3-2.5 25.9-7.6 37.6-5.1 11.6-11.9 21.9-20.7 30.6-8.7 8.7-18.9 15.6-30.6 20.7-11.6 5.1-24.1 7.6-37.5 7.6zm0.1-159.7q-12.6 0-23.6 5.2c-7.4 3.4-13.8 8.1-19.3 13.8-5.5 5.8-9.9 12.5-13 20.2-3.3 7.7-4.9 15.7-4.9 24 0 8.4 1.6 16.5 4.9 24.1 3.2 7.7 7.5 14.4 13 20.3 5.4 5.8 11.9 10.5 19.3 13.9q11 5.2 23.6 5.2 12.7 0 23.7-5.2c7.3-3.4 13.7-8.1 19.3-13.9 5.4-5.9 9.8-12.6 13-20.2 3.2-7.7 4.8-15.7 4.8-24.2 0-8.4-1.6-16.2-4.8-24-3.3-7.7-7.6-14.4-13-20.2-5.5-5.7-12-10.4-19.3-13.8-7.4-3.4-15.3-5.2-23.7-5.2z"/><path fill-rule="evenodd" class="e" d="m1198.6 151.4l-93.8 109.8-93.4-109.8v54.2l93.4 109.9 58.2-69.8v93.9h35.6v-188.2z"/><path fill-rule="evenodd" class="e" d="m1046.4 339.6l-159.8-188.2v53.8l87.4 103.4h-87.4v31h159.8z"/><path class="e" d="m1276.6 548.2v-69.7h-78.4v69.7h-35.4v-166.1h35.4v65.3h78.4v-65.3h35.6v166.1z"/><path class="e" d="m1546.1 548.2l-32.6-59.5h-25.9v59.5h-35.3v-166.1h77.7c34.6 0 55.7 22.7 55.7 53.6 0 30.8-18.4 45-36.3 49.3l37.3 63.2zm-21.4-135.7h-37.1v45.8h37.1c14.2 0 24.9-8.9 24.9-22.9 0-13.9-10.7-22.9-24.9-22.9z"/><path class="e" d="m1691 379.4c50.3 0 86.9 35.9 86.9 85.9 0 50-36.6 85.9-86.9 85.9-50.3 0-86.6-35.9-86.6-85.9 0-50 36.6-85.9 86.6-85.9zm0 31.4c-30.6 0-50.3 23.4-50.3 54.5 0 31.1 19.7 54.5 50.3 54.5 30.7 0 50.6-23.6 50.6-54.5 0-30.9-19.9-54.5-50.6-54.5z"/><path fill-rule="evenodd" class="e" d="m1342.5 382.1h82.1v30.4h-82.1z"/><path fill-rule="evenodd" class="e" d="m1342.5 448.9h82.1v30.4h-82.1z"/><path fill-rule="evenodd" class="e" d="m1342.5 515.7h82.1v30.3h-82.1z"/></svg>