<?xml version="1.0" standalone="no"?>
<?xml-stylesheet href="styles.css" type="text/css"?>
<svg xmlns="http://www.w3.org/2000/svg" xmlns:xlink="http://www.w3.org/1999/xlink" viewBox="-48 -48 1120 1540">
	<title>f0</title>
	<g id="Tables">
		<path class="desk"
			d="M63.58,874.38a3.85,3.85,0,0,0-3-1.73H18.68c-1.1,0-1.55.78-1,1.74l9.21,16.12,2,3.46L66.61,958.8l2,3.47,43.91,76.57a3.92,3.92,0,0,1,0,3.47l-43.91,76.57-2,3.47-37.73,64.83a2,2,0,0,0,.73,2.73l31.24,18.14a2,2,0,0,0,2.72-.73l26-45.23,2-3.47,66.85-116.31a3.85,3.85,0,0,0,0-3.47L91.56,922.52l-2-3.46Z" />
		<path class="desk"
			d="M253.21,128.2a3.82,3.82,0,0,0-3,1.74L206.3,207.07l-2,3.47L136.9,326.86c-.55.95-.1,1.73,1,1.73h41.9a3.85,3.85,0,0,0,3-1.73l44.46-77.14c.55-.95,1.45-2.51,2-3.47l66.86-116.31c.55-1,.09-1.74-1-1.74Z" />
		<path class="desk"
			d="M136.9,783c-.55,1-.1,1.74,1,1.74h41.9a3.83,3.83,0,0,0,3-1.74l44.46-77.13,2-3.47,66.86-116.32a3.83,3.83,0,0,0,0-3.46L229.25,466.34c-.54-1-1.44-2.51-2-3.47L182.8,386.29a3.85,3.85,0,0,0-3-1.73H137.9c-1.1,0-1.55.78-1,1.73l67.4,116.32c.56,1,1.46,2.52,2,3.47l43.91,76.57a3.85,3.85,0,0,1,0,3.47L206.3,662.7c-.54.95-1.44,2.51-2,3.46Z" />
		<path class="desk"
			d="M28.88,731.55l-2,3.47-9.21,16.11c-.54,1-.09,1.74,1,1.74h41.9a3.8,3.8,0,0,0,3-1.74l26-45.22c.54-1,1.44-2.52,2-3.47l66.85-116.32a3.83,3.83,0,0,0,0-3.46L91.56,466.34l-2-3.47-26-44.67a3.85,3.85,0,0,0-3-1.73H18.68c-1.1,0-1.55.78-1,1.74l9.21,16.11,2,3.47,37.73,64.83,2,3.46,43.91,76.57a3.92,3.92,0,0,1,0,3.47L68.61,662.7l-2,3.46Z" />
		<path class="desk"
			d="M68.61,207.07l-2,3.47L28.88,275.36l-2,3.47L17.67,295c-.54.95-.09,1.73,1,1.73h41.9a3.81,3.81,0,0,0,3-1.73l26-45.23,2-3.47,66.85-116.31c.55-1,.1-1.74-1-1.74h-41.9a3.84,3.84,0,0,0-3,1.74Z" />
		<path class="desk"
			d="M182.8,842.48a3.85,3.85,0,0,0-3-1.73H137.9c-1.1,0-1.55.78-1,1.73L204.3,958.8c.56,1,1.46,2.51,2,3.47l43.91,76.57a3.85,3.85,0,0,1,0,3.47l-43.91,76.57c-.54,1-1.44,2.52-2,3.47l-37.73,64.83a2,2,0,0,0,.73,2.73l31.24,18.14a2,2,0,0,0,2.73-.73l26-45.23c.55-.95,1.45-2.51,2-3.47l66.86-116.31a3.85,3.85,0,0,0,0-3.47L229.25,922.52c-.54-.95-1.44-2.51-2-3.46Z" />
		<path class="desk"
			d="M315.45,842.48a3.83,3.83,0,0,0-3-1.73h-41.9c-1.1,0-1.55.78-1,1.73L337,958.8l2,3.47,43.91,76.57a3.85,3.85,0,0,1,0,3.47L339,1118.88l-2,3.47-37.73,64.83a2,2,0,0,0,.72,2.74l30.7,18.12a2,2,0,0,0,2.72-.72l26-45.23,2-3.46,67.4-116.33a3.83,3.83,0,0,0,0-3.46l-67.4-116.32-2-3.47Z" />
		<path class="desk"
			d="M315.45,386.3a3.81,3.81,0,0,0-3-1.74h-41.9c-1.1,0-1.55.78-1,1.73L337,502.61l2,3.47,43.91,76.57a3.85,3.85,0,0,1,0,3.47L339,662.7l-2,3.46L269.56,783c-.55,1-.1,1.74,1,1.74h41.9a3.84,3.84,0,0,0,3-1.74l43.92-77.13,2-3.47,67.4-116.32a3.83,3.83,0,0,0,0-3.46l-67.4-116.33-2-3.46Z" />
		<path class="desk"
			d="M313.1,8.42H3a2,2,0,0,0-2,2V46.16a2,2,0,0,0,2,2H336a3.83,3.83,0,0,1,3,1.73l43.91,76.58a3.86,3.86,0,0,1,0,3.47L339,207.07l-2,3.47-67.4,116.32c-.55.95-.1,1.73,1,1.73h41.9a3.81,3.81,0,0,0,3-1.74l43.92-77.13c.54-.95,1.44-2.51,2-3.46l67.4-116.33a3.83,3.83,0,0,0,0-3.46L361.36,10.15a3.85,3.85,0,0,0-3-1.73Z" />
		<path class="desk"
			d="M955.19,874.38a3.85,3.85,0,0,1,3-1.73h41.9c1.1,0,1.56.78,1,1.74l-9.21,16.12-2,3.46L952.16,958.8l-2,3.47-43.91,76.57a3.92,3.92,0,0,0,0,3.47l43.91,76.57,2,3.47,37.73,64.83a2,2,0,0,1-.72,2.73l-31.25,18.14a2,2,0,0,1-2.72-.73l-26-45.23-2-3.47-66.85-116.31a3.85,3.85,0,0,1,0-3.47l66.85-116.32,2-3.46Z" />
		<path class="desk"
			d="M765.56,128.2a3.82,3.82,0,0,1,3,1.74l43.92,77.13c.55,1,1.44,2.52,2,3.47l67.4,116.32c.55.95.1,1.73-1,1.73H839a3.85,3.85,0,0,1-3-1.73l-44.46-77.14-2-3.47L722.66,129.94c-.55-1-.09-1.74,1-1.74Z" />
		<path class="desk"
			d="M881.87,783c.55,1,.1,1.74-1,1.74H839a3.83,3.83,0,0,1-3-1.74l-44.46-77.13-2-3.47L722.66,586.12a3.83,3.83,0,0,1,0-3.46l66.86-116.32,2-3.47L836,386.29a3.85,3.85,0,0,1,3-1.73h41.9c1.1,0,1.55.78,1,1.73l-67.4,116.32c-.56,1-1.45,2.52-2,3.47l-43.91,76.57a3.85,3.85,0,0,0,0,3.47l43.91,76.58,2,3.46Z" />
		<path class="desk"
			d="M989.89,731.55l2,3.47,9.21,16.11c.55,1,.09,1.74-1,1.74h-41.9a3.8,3.8,0,0,1-3-1.74l-26-45.22-2-3.47L860.36,586.12a3.83,3.83,0,0,1,0-3.46l66.85-116.32,2-3.47,26-44.67a3.85,3.85,0,0,1,3-1.73h41.9c1.1,0,1.56.78,1,1.74l-9.21,16.11-2,3.47-37.73,64.83-2,3.46-43.91,76.57a3.92,3.92,0,0,0,0,3.47l43.91,76.58,2,3.46Z" />
		<path class="desk"
			d="M950.16,207.07l2,3.47,37.73,64.82,2,3.47L1001.1,295c.55.95.09,1.73-1,1.73h-41.9a3.81,3.81,0,0,1-3-1.73l-26-45.23-2-3.47L860.36,129.94c-.55-1-.1-1.74,1-1.74h41.9a3.84,3.84,0,0,1,3,1.74Z" />
		<path class="desk"
			d="M836,842.48a3.85,3.85,0,0,1,3-1.73h41.9c1.1,0,1.55.78,1,1.73L814.47,958.8c-.56,1-1.45,2.51-2,3.47l-43.91,76.57a3.85,3.85,0,0,0,0,3.47l43.91,76.57,2,3.47,37.73,64.83a2,2,0,0,1-.73,2.73l-31.24,18.14a2,2,0,0,1-2.73-.73l-26-45.23-2-3.47-66.86-116.31a3.85,3.85,0,0,1,0-3.47l66.86-116.32,2-3.46Z" />
		<path class="desk"
			d="M703.32,842.48a3.83,3.83,0,0,1,3-1.73h41.9c1.1,0,1.55.78,1,1.73L681.81,958.8l-2,3.47-43.91,76.57a3.85,3.85,0,0,0,0,3.47l43.91,76.57,2,3.47,37.73,64.83a2,2,0,0,1-.72,2.74L688.12,1208a2,2,0,0,1-2.72-.72l-26-45.23-2-3.46L590,1042.3a3.83,3.83,0,0,1,0-3.46l67.4-116.32,2-3.47Z" />
		<path class="desk"
			d="M703.32,386.3a3.81,3.81,0,0,1,3-1.74h41.9c1.1,0,1.55.78,1,1.73l-67.4,116.32-2,3.47L635.9,582.65a3.85,3.85,0,0,0,0,3.47l43.91,76.58,2,3.46L749.21,783c.55,1,.1,1.74-1,1.74h-41.9a3.84,3.84,0,0,1-3-1.74L659.4,705.91l-2-3.47L590,586.12a3.83,3.83,0,0,1,0-3.46l67.4-116.33,2-3.46Z" />
		<path class="desk"
			d="M705.67,8.42h310.09a2,2,0,0,1,2,2V46.16a2,2,0,0,1-2,2h-333a3.85,3.85,0,0,0-3,1.73L635.9,126.47a3.86,3.86,0,0,0,0,3.47l43.92,77.13,2,3.47,67.4,116.32c.55.95.1,1.73-1,1.73h-41.9a3.81,3.81,0,0,1-3-1.74L659.4,249.72c-.54-.95-1.44-2.51-2-3.46L590,129.93a3.83,3.83,0,0,1,0-3.46l67.4-116.32a3.85,3.85,0,0,1,3-1.73Z" />
	</g>
	<g id="Workstations">
		<circle id="f0r4s12" class="workstation" cx="372.44" cy="564.48" r="7.5" />
		<circle id="f0r4s13" class="workstation" cx="383.64" cy="504.75" r="7.5" />
		<circle id="f0r5s13" class="workstation" cx="216.81" cy="524.44" r="7.5" />
		<circle id="f0r5s12" class="workstation" cx="274.33" cy="544.77" r="7.5" />
		<circle id="f0r5s15" class="workstation" cx="159.03" cy="424.46" r="7.5" />
		<circle id="f0r5s14" class="workstation" cx="216.67" cy="444.72" r="7.5" />
		<circle id="f0r4s14" class="workstation" cx="314.8" cy="464.3" r="7.5" />
		<circle id="f0r6s10" class="workstation" cx="102.2" cy="564.6" r="7.5" />
		<circle id="f0r6s11" class="workstation" cx="113.66" cy="504.81" r="7.5" />
		<circle id="f0r6s12" class="workstation" cx="44.46" cy="464.52" r="7.5" />
		<circle id="f0r4s15" class="workstation" cx="325.96" cy="404.7" r="7.5" />
		<circle id="f0r4s11" class="workstation" cx="406.63" cy="624.35" r="7.5" />
		<circle id="f0r4s10" class="workstation" cx="349.25" cy="644.73" r="7.5" />
		<circle id="f0r4s9" class="workstation" cx="348.94" cy="724.25" r="7.5" />
		<circle id="f0r4s8" class="workstation" cx="291.65" cy="744.68" r="7.5" />
		<circle id="f0r4s20" class="workstation" cx="372.38" cy="108.35" r="7.5" />
		<circle id="f0r4s21" class="workstation" cx="383.58" cy="48.62" r="7.5" />
		<circle id="f0r4s23" class="workstation" cx="218.76" cy="48.16" r="7.5" />
		<circle id="f0r4s25" class="workstation" cx="103.18" cy="48.12" r="7.5" />
		<circle id="f0r4s24" class="workstation" cx="149.6" cy="8.43" r="7.5" />
		<circle id="f0r4s26" class="workstation" cx="34.01" cy="8.42" r="7.5" />
		<circle id="f0r4s22" class="workstation" cx="264.91" cy="8.43" r="7.5" />
		<circle id="f0r4s19" class="workstation" cx="406.57" cy="168.22" r="7.5" />
		<circle id="f0r4s18" class="workstation" cx="349.19" cy="188.6" r="7.5" />
		<circle id="f0r4s17" class="workstation" cx="348.88" cy="268.12" r="7.5" />
		<circle id="f0r4s16" class="workstation" cx="291.59" cy="288.55" r="7.5" />
		<circle id="f0r5s16" class="workstation" cx="193.34" cy="308.48" r="7.5" />
		<circle id="f0r5s17" class="workstation" cx="182.3" cy="248.53" r="7.5" />
		<circle id="f0r5s18" class="workstation" cx="251.02" cy="208.36" r="7.5" />
		<circle id="f0r6s13" class="workstation" cx="78.92" cy="268.22" r="7.5" />
		<circle id="f0r6s14" class="workstation" cx="79.09" cy="188.64" r="7.5" />
		<circle id="f0r6s15" class="workstation" cx="136.59" cy="168.09" r="7.5" />
		<circle id="f0r6s7" class="workstation" cx="78.93" cy="724.42" r="7.5" />
		<circle id="f0r6s8" class="workstation" cx="79.1" cy="644.84" r="7.5" />
		<circle id="f0r6s9" class="workstation" cx="136.6" cy="624.29" r="7.5" />
		<circle id="f0r5s19" class="workstation" cx="239.72" cy="148.4" r="7.5" />
		<circle id="f0r5s8" class="workstation" cx="193.38" cy="764.67" r="7.5" />
		<circle id="f0r5s9" class="workstation" cx="182.33" cy="704.71" r="7.5" />
		<circle id="f0r5s10" class="workstation" cx="251.05" cy="664.54" r="7.5" />
		<circle id="f0r5s11" class="workstation" cx="239.75" cy="604.58" r="7.5" />
		<circle id="f0r4s4" class="workstation" cx="372.41" cy="1020.66" r="7.5" />
		<circle id="f0r4s5" class="workstation" cx="383.61" cy="960.93" r="7.5" />
		<circle id="f0r5s5" class="workstation" cx="216.79" cy="980.62" r="7.5" />
		<circle id="f0r5s4" class="workstation" cx="274.31" cy="1000.96" r="7.5" />
		<circle id="f0r5s7" class="workstation" cx="159.01" cy="880.64" r="7.5" />
		<circle id="f0r5s6" class="workstation" cx="216.65" cy="900.9" r="7.5" />
		<circle id="f0r4s6" class="workstation" cx="314.78" cy="920.48" r="7.5" />
		<circle id="f0r6s4" class="workstation" cx="102.18" cy="1020.78" r="7.5" />
		<circle id="f0r6s5" class="workstation" cx="113.64" cy="960.99" r="7.5" />
		<circle id="f0r6s6" class="workstation" cx="44.44" cy="920.7" r="7.5" />
		<circle id="f0r4s7" class="workstation" cx="325.93" cy="860.88" r="7.5" />
		<circle id="f0r4s3" class="workstation" cx="406.61" cy="1080.53" r="7.5" />
		<circle id="f0r4s2" class="workstation" cx="349.23" cy="1100.91" r="7.5" />
		<circle id="f0r4s1" class="workstation" cx="348.92" cy="1180.43" r="7.5" />
		<circle id="f0r6s1" class="workstation" cx="78.9" cy="1180.6" r="7.5" />
		<circle id="f0r6s2" class="workstation" cx="79.07" cy="1101.02" r="7.5" />
		<circle id="f0r6s3" class="workstation" cx="136.58" cy="1080.47" r="7.5" />
		<circle id="f0r5s1" class="workstation" cx="182.31" cy="1160.89" r="7.5" />
		<circle id="f0r5s2" class="workstation" cx="251.03" cy="1120.72" r="7.5" />
		<circle id="f0r5s3" class="workstation" cx="239.73" cy="1060.77" r="7.5" />
		<circle id="" class="workstation" cx="646.14" cy="564.48" r="7.5" />
		<circle id="" class="workstation" cx="634.94" cy="504.75" r="7.5" />
		<circle id="" class="workstation" cx="801.76" cy="524.44" r="7.5" />
		<circle id="" class="workstation" cx="744.25" cy="544.77" r="7.5" />
		<circle id="" class="workstation" cx="859.54" cy="424.46" r="7.5" />
		<circle id="" class="workstation" cx="801.91" cy="444.72" r="7.5" />
		<circle id="" class="workstation" cx="703.77" cy="464.3" r="7.5" />
		<circle id="" class="workstation" cx="916.37" cy="564.6" r="7.5" />
		<circle id="" class="workstation" cx="904.91" cy="504.81" r="7.5" />
		<circle id="" class="workstation" cx="974.11" cy="464.52" r="7.5" />
		<circle id="" class="workstation" cx="692.62" cy="404.7" r="7.5" />
		<circle id="" class="workstation" cx="611.95" cy="624.35" r="7.5" />
		<circle id="" class="workstation" cx="669.32" cy="644.73" r="7.5" />
		<circle id="" class="workstation" cx="669.64" cy="724.25" r="7.5" />
		<circle id="" class="workstation" cx="726.93" cy="744.68" r="7.5" />
		<circle id="" class="workstation" cx="646.2" cy="108.35" r="7.5" />
		<circle id="" class="workstation" cx="635" cy="48.62" r="7.5" />
		<circle id="" class="workstation" cx="799.82" cy="48.16" r="7.5" />
		<circle id="" class="workstation" cx="915.39" cy="48.12" r="7.5" />
		<circle id="" class="workstation" cx="868.97" cy="8.43" r="7.5" />
		<circle id="" class="workstation" cx="984.56" cy="8.42" r="7.5" />
		<circle id="" class="workstation" cx="753.67" cy="8.43" r="7.5" />
		<circle id="" class="workstation" cx="612" cy="168.22" r="7.5" />
		<circle id="" class="workstation" cx="669.38" cy="188.6" r="7.5" />
		<circle id="" class="workstation" cx="669.7" cy="268.12" r="7.5" />
		<circle id="" class="workstation" cx="726.99" cy="288.55" r="7.5" />
		<circle id="" class="workstation" cx="825.23" cy="308.48" r="7.5" />
		<circle id="" class="workstation" cx="836.28" cy="248.53" r="7.5" />
		<circle id="" class="workstation" cx="767.56" cy="208.36" r="7.5" />
		<circle id="" class="workstation" cx="939.66" cy="268.22" r="7.5" />
		<circle id="" class="workstation" cx="939.49" cy="188.64" r="7.5" />
		<circle id="" class="workstation" cx="881.98" cy="168.09" r="7.5" />
		<circle id="" class="workstation" cx="939.65" cy="724.42" r="7.5" />
		<circle id="" class="workstation" cx="939.48" cy="644.84" r="7.5" />
		<circle id="" class="workstation" cx="881.98" cy="624.29" r="7.5" />
		<circle id="" class="workstation" cx="778.86" cy="148.4" r="7.5" />
		<circle id="" class="workstation" cx="825.2" cy="764.67" r="7.5" />
		<circle id="" class="workstation" cx="836.24" cy="704.71" r="7.5" />
		<circle id="" class="workstation" cx="767.53" cy="664.54" r="7.5" />
		<circle id="" class="workstation" cx="778.82" cy="604.58" r="7.5" />
		<circle id="" class="workstation" cx="646.16" cy="1020.66" r="7.5" />
		<circle id="" class="workstation" cx="634.96" cy="960.93" r="7.5" />
		<circle id="" class="workstation" cx="801.79" cy="980.62" r="7.5" />
		<circle id="" class="workstation" cx="744.27" cy="1000.96" r="7.5" />
		<circle id="" class="workstation" cx="859.57" cy="880.64" r="7.5" />
		<circle id="" class="workstation" cx="801.93" cy="900.9" r="7.5" />
		<circle id="" class="workstation" cx="703.79" cy="920.48" r="7.5" />
		<circle id="" class="workstation" cx="916.39" cy="1020.78" r="7.5" />
		<circle id="" class="workstation" cx="904.94" cy="960.99" r="7.5" />
		<circle id="" class="workstation" cx="974.13" cy="920.7" r="7.5" />
		<circle id="" class="workstation" cx="692.64" cy="860.88" r="7.5" />
		<circle id="" class="workstation" cx="611.97" cy="1080.53" r="7.5" />
		<circle id="" class="workstation" cx="669.35" cy="1100.91" r="7.5" />
		<circle id="" class="workstation" cx="669.66" cy="1180.43" r="7.5" />
		<circle id="" class="workstation" cx="939.67" cy="1180.6" r="7.5" />
		<circle id="" class="workstation" cx="939.5" cy="1101.02" r="7.5" />
		<circle id="" class="workstation" cx="882" cy="1080.47" r="7.5" />
		<circle id="" class="workstation" cx="836.26" cy="1160.89" r="7.5" />
		<circle id="" class="workstation" cx="767.55" cy="1120.72" r="7.5" />
		<circle id="" class="workstation" cx="778.84" cy="1060.77" r="7.5" />
	</g>

	<g id="Users">

	</g>

	<use id="hoverfront" xlink:href="" />
</svg>
